<?xml version="1.0" encoding="UTF-8"?>
<svg id="Calque_2" data-name="Calque 2" xmlns="http://www.w3.org/2000/svg" viewBox="0 0 342.84 314.78">
  <defs>
    <style>
      .cls-1 {
        fill: #9356dc;
        stroke-width: 0px;
      }

      .cls-2 {
        font-family: GoudyStout, 'Goudy Stout';
        font-size: 230.93px;
      }
    </style>
  </defs>
  <g id="Calque_1-2" data-name="Calque 1">
    <g>
      <path class="cls-1" d="m313.55,29.29c-39.05-39.05-102.37-39.05-141.42,0-.12.12-.23.24-.35.36l-.36-.36-.36.36c-.12-.12-.23-.24-.35-.36-39.05-39.05-102.37-39.05-141.42,0s-39.05,102.37,0,141.42c2.4,2.4,4.89,4.64,7.45,6.75l134.68,134.67,134.68-134.67c2.57-2.1,5.06-4.35,7.45-6.75,39.05-39.05,39.05-102.37,0-141.42Z"/>
      <text class="cls-2" transform="translate(54.61 221.11) rotate(3.33) scale(.79 1)"><tspan x="0" y="0">O</tspan></text>
    </g>
  </g>
</svg>